<?xml version="1.0" encoding="utf-8"?>
<!-- Generator: Adobe Illustrator 19.0.0, SVG Export Plug-In . SVG Version: 6.00 Build 0)  -->
<svg version="1.1" id="PromafaLogo" xmlns="http://www.w3.org/2000/svg" xmlns:xlink="http://www.w3.org/1999/xlink" x="0px"
	 y="0px" viewBox="20 -20 1000 600" style="enable-background:new 20 -20 1000 600;" xml:space="preserve">
<g id="PromafaLogoTypo">
	<path id="XMLID_12_" d="M564.6,335h21.6c11.9,0,16.5,7.6,16.5,15.3c0,7.8-4.6,15.3-16.5,15.3h-11.1v17.2h-10.5V335z M575.2,357.5
		h8.2c4.9,0,9.2-1.1,9.2-7.2s-4.4-7.2-9.2-7.2h-8.2V357.5z"/>
	<path id="XMLID_15_" d="M606.1,335h25.8c8.6,0,14,6,14,13.2c0,5.6-2.3,9.8-7.6,12v0.1c5.2,1.3,6.6,6.4,7,11.2c0.2,3,0.1,8.6,2,11.3
		h-10.5c-1.3-3-1.1-7.6-1.7-11.5c-0.7-5-2.7-7.2-8-7.2h-10.5v18.7h-10.5V335z M616.6,356.6h11.5c4.7,0,7.2-2,7.2-6.8
		c0-4.6-2.5-6.6-7.2-6.6h-11.5V356.6z"/>
	<path id="XMLID_162_" d="M672.7,333.9c14.8,0,23.5,11.1,23.5,25.3c0,13.8-8.7,24.9-23.5,24.9s-23.5-11.1-23.5-24.9
		C649.2,344.9,657.9,333.9,672.7,333.9z M672.7,375.1c9.4,0,13-8,13-16c0-8.4-3.6-16.4-13-16.4s-13,8-13,16.4
		C659.7,367.1,663.3,375.1,672.7,375.1z"/>
	<path id="XMLID_165_" d="M700.2,335h20.6c12.4,0,21.7,7.8,21.7,23.7c0,13.9-7.1,24.2-21.7,24.2h-20.6V335z M710.7,374h9.4
		c6.1,0,11.9-3.8,11.9-14.3c0-9.6-3.4-15.8-13.8-15.8h-7.5L710.7,374L710.7,374z"/>
	<path id="XMLID_168_" d="M787.2,364.7c0,12.9-7.6,19.2-20.4,19.2c-12.9,0-20.4-6.2-20.4-19.2V335h10.5v29.7
		c0,5.2,1.3,10.4,9.8,10.4c7.5,0,9.9-3.3,9.9-10.4V335h10.5v29.7H787.2z"/>
	<path id="XMLID_170_" d="M803.6,343.8h-14.3V335h39.2v8.8h-14.3v39h-10.5v-39H803.6z"/>
	<path id="XMLID_172_" d="M852.2,333.9c14.8,0,23.5,11.1,23.5,25.3c0,13.8-8.7,24.9-23.5,24.9s-23.5-11.1-23.5-24.9
		C828.7,344.9,837.4,333.9,852.2,333.9z M852.2,375.1c9.4,0,13-8,13-16c0-8.4-3.6-16.4-13-16.4s-13,8-13,16.4
		C839.2,367.1,842.7,375.1,852.2,375.1z"/>
	<path id="XMLID_175_" d="M886.8,367c0,6.4,5,8.8,10.6,8.8c3.7,0,9.3-1.1,9.3-6c0-5.2-7.2-6-14.2-7.9c-7.1-1.9-14.3-4.6-14.3-13.6
		c0-9.8,9.2-14.5,17.9-14.5c10,0,19.2,4.4,19.2,15.4h-10.2c-0.3-5.8-4.4-7.2-9.4-7.2c-3.4,0-7.2,1.4-7.2,5.4c0,3.7,2.3,4.2,14.3,7.2
		c3.5,0.9,14.2,3.1,14.2,13.9c0,8.8-6.9,15.3-19.9,15.3c-10.6,0-20.5-5.2-20.4-17h10.1V367z"/>
	<path id="XMLID_177_" d="M564.6,421h20.6c12.4,0,21.7,7.8,21.7,23.7c0,13.9-7.1,24.2-21.7,24.2h-20.6V421z M575.2,460h9.4
		c6.1,0,11.9-3.8,11.9-14.3c0-9.6-3.4-15.8-13.8-15.8h-7.5L575.2,460L575.2,460z"/>
	<path id="XMLID_180_" d="M611.1,421h35.8v8.8h-25.3v10.3h23.2v8.2h-23.2V460h25.8v8.8h-36.3V421z"/>
	<path id="XMLID_182_" d="M666.7,421h14.8l11.2,32.9h0.1l10.6-32.9h14.8v47.8h-9.8v-33.9h-0.1l-11.7,33.9h-8.1l-11.7-33.6h-0.1v33.6
		h-9.8V421H666.7z"/>
	<path id="XMLID_184_" d="M737.3,421h10.8l17.9,47.8h-11l-3.6-10.7h-17.9l-3.8,10.7H719L737.3,421z M736.3,450.3h12.4l-6-17.6h-0.1
		L736.3,450.3z"/>
	<path id="XMLID_187_" d="M766.9,421h10.5l20,32.1h0.1V421h9.8v47.8h-10.5l-19.9-32h-0.1v32H767L766.9,421L766.9,421z"/>
	<path id="XMLID_189_" d="M813.3,421H834c12.4,0,21.7,7.8,21.7,23.7c0,13.9-7.1,24.2-21.7,24.2h-20.6V421H813.3z M823.9,460h9.4
		c6.1,0,11.9-3.8,11.9-14.3c0-9.6-3.3-15.8-13.8-15.8h-7.5L823.9,460L823.9,460z"/>
	<path id="XMLID_192_" d="M859.8,421h10.5v47.8h-10.5V421z"/>
	<path id="XMLID_194_" d="M897.8,419.9c14.8,0,23.5,11.1,23.5,25.3c0,13.8-8.7,24.9-23.5,24.9s-23.5-11.1-23.5-24.9
		C874.2,430.9,882.9,419.9,897.8,419.9z M897.8,461.1c9.4,0,13-8,13-16c0-8.4-3.6-16.4-13-16.4s-13,8-13,16.4
		C884.8,453.1,888.3,461.1,897.8,461.1z"/>
	<path id="XMLID_197_" d="M957.1,437.1c-0.7-4.8-5.2-8.4-10.5-8.4c-9.4,0-13,8-13,16.4c0,8,3.6,16,13,16c6.4,0,10-4.4,10.9-10.7
		h10.2c-1.1,11.9-9.3,19.6-21,19.6c-14.8,0-23.5-11.1-23.5-24.9c0-14.2,8.7-25.3,23.5-25.3c10.5,0,19.4,6.2,20.6,17.2L957.1,437.1
		L957.1,437.1z"/>
	<path id="XMLID_199_" d="M984.7,421h10.8l17.9,47.8h-10.9l-3.6-10.7H981l-3.8,10.7h-10.7L984.7,421z M983.7,450.3h12.4l-6-17.6H990
		L983.7,450.3z"/>
	<path id="XMLID_202_" d="M564.6,507h33.6v8.8h-23.1v11.1h20v8.2h-20v19.8h-10.5V507z"/>
	<path id="XMLID_204_" d="M610.5,507h10.8l17.9,47.8h-10.9l-3.6-10.7h-17.9l-3.8,10.7h-10.7L610.5,507z M609.5,536.3h12.4l-6-17.6
		h-0.1L609.5,536.3z"/>
	<path id="XMLID_207_" d="M640.1,507h20.6c12.4,0,21.7,7.8,21.7,23.7c0,13.9-7.1,24.2-21.7,24.2h-20.6V507z M650.7,546h9.4
		c6.1,0,11.9-3.8,11.9-14.3c0-9.6-3.3-15.8-13.8-15.8h-7.5L650.7,546L650.7,546z"/>
	<path id="XMLID_210_" d="M686.6,507h35.8v8.8h-25.3v10.3h23.2v8.2h-23.2V546h25.8v8.8h-36.3V507z"/>
	<path id="XMLID_212_" d="M726.8,507h10.5v39h23.3v8.8h-33.8V507z"/>
	<path id="XMLID_214_" d="M778.7,507h10.5v39h23.3v8.8h-33.8V507z"/>
	<path id="XMLID_216_" d="M818.4,515.8H804V507h39.2v8.8h-14.3v39h-10.5V515.8z"/>
	<path id="XMLID_218_" d="M845.5,507h20.6c12.4,0,21.7,7.8,21.7,23.7c0,13.9-7.1,24.2-21.7,24.2h-20.6V507z M856,546h9.4
		c6.1,0,11.9-3.8,11.9-14.3c0-9.6-3.3-15.8-13.8-15.8H856V546z"/>
	<path id="XMLID_221_" d="M905,507h10.8l17.9,47.8h-10.9l-3.6-10.7h-17.9l-3.8,10.7h-10.7L905,507z M904,536.3h12.4l-6-17.6h-0.1
		L904,536.3z"/>
	<path id="PromafaLogoTypo-dot" d="M934,544.5h10.5v10.3H934V544.5z"/>
</g>
<g id="PromafaLogoLines">
	<path id="PromafaLogoLines-line_5_" d="M48.5,380H520v-45H28.4C33.2,350.4,39.9,365.5,48.5,380z"/>
	<path id="PromafaLogoLines-line_4_" d="M147.3,480H520v-45H91.8C108,451,126.6,466.1,147.3,480z"/>
	<path id="PromafaLogoLines-line_3_" d="M520,580v-45H256.5C333,563.5,423.3,580,520,580z"/>
	<path id="PromafaLogoLines-line_2_" d="M243.5,530H520v-45H155C181.4,502,211.2,517.1,243.5,530z"/>
	<path id="PromafaLogoLines-line_1_" d="M86.9,430H520v-45H51.5C61.3,400.7,73.1,415.7,86.9,430z"/>
	<path id="PromafaLogoLines-line" d="M26.9,330H520v-45H20.1C20.5,300.3,22.8,315.3,26.9,330z"/>
</g>
<g id="PromafaLogoMain">
	<g id="PromafaLogoMain-background">
		<path id="XMLID_124_" d="M520-20C243.9-20,20,114.3,20,280h1000C1020,114.3,796.1-20,520-20z M158.4,202.3h-32.1l-8.5,41.1H99
			l22.2-107.1h43c33.4,0,33.4,22.6,33.4,32.7C197.7,169.6,197.2,202.3,158.4,202.3z M291.9,192.7v0.3c9,3.3,11.4,10.5,11.4,19.3
			c0,7.3-1.8,14.8-1.6,22.2c0,3,0.3,6.1,1.9,8.8H284c-0.9-2.7-1.2-5.3-1.2-8.2c0-7.9,1.8-15.6,1.8-23.4c0-12.4-10-12.4-20.1-12.4
			h-22.3l-9.1,44.1h-19l22.2-107.1h46.3c9.1,0,33.7,1.2,33.7,27.3C316.2,180.5,307,190,291.9,192.7z M386.8,245.9
			c-30.6,0-47.5-20.2-47.5-46.8c0-45,29.5-65.4,57.4-65.4c28.2,0,46.8,19.3,46.8,46.8C443.5,225.5,415.5,245.9,386.8,245.9z
			 M575.4,243.4h-18l18.6-85.8h-0.3l-48.4,85.8h-14.7L499,157.6h-0.3l-16.3,85.8h-18l22.2-107.1h25.8l11.7,81.6h0.3l46.5-81.6h26.5
			L575.4,243.4z M687,243.4l-4.3-28.3H640l-16.5,28.3h-20.1l64.2-107.1h19.8L706,243.4H687z M806.4,195.8h-47.1l-9.9,47.5h-18.7
			l22.3-107h73l-3.3,16.2h-54.4l-5.9,28h47.2L806.4,195.8z M898.2,243.4l-4.3-28.3h-42.6l-16.5,28.3h-20.1l64.2-107.1h19.8
			l18.6,107.1H898.2z"/>
		<path id="XMLID_136_" d="M278.2,151.6H252l-6.9,33.4h27.4c15.9,0,24.9-7,24.9-19.5C297.4,153.8,288.1,151.6,278.2,151.6z"/>
		<path id="XMLID_135_" d="M161.1,151.6h-24.3l-7.3,35.4h28.3c16.8,0,21.1-11.3,21.1-20.7C178.9,160.3,176.4,151.6,161.1,151.6z"/>
		<polygon id="XMLID_134_" points="673.8,155.2 648,200.8 680.7,200.8 674.1,155.2 		"/>
		<path id="XMLID_133_" d="M396.1,149c-25.5,0-38.1,25.6-38.1,49.5c0,19.9,10.6,32.1,29.4,32.1c24.7,0,37.3-25.6,37.3-49.5
			C424.8,161.2,414.9,149,396.1,149z"/>
		<polygon id="XMLID_123_" points="885,155.2 859.2,200.8 891.9,200.8 885.3,155.2 		"/>
	</g>
	<g id="PromafaLogoMain-text">
		<path id="XMLID_120_" d="M164.2,136.3h-43L99,243.4h18.7l8.5-41.1h32.1c38.8,0,39.3-32.7,39.3-33.3
			C197.7,158.9,197.7,136.3,164.2,136.3z M157.8,187h-28.3l7.3-35.4h24.3c15.3,0,17.8,8.7,17.8,14.7
			C178.9,175.7,174.6,187,157.8,187z"/>
		<path id="XMLID_117_" d="M282.4,136.3h-46.3l-22.2,107.1h19l9.1-44.1h22.3c10,0,20.1,0,20.1,12.4c0,7.8-1.8,15.4-1.8,23.4
			c0,3,0.3,5.5,1.2,8.2h19.6c-1.6-2.7-1.9-5.8-1.9-8.8c-0.1-7.3,1.6-14.8,1.6-22.2c0-8.8-2.4-16-11.4-19.3v-0.3
			c15.1-2.7,24.3-12.1,24.3-29.1C316.2,137.5,291.6,136.3,282.4,136.3z M272.5,185h-27.4l6.9-33.4h26.2c9.9,0,19.2,2.3,19.2,13.9
			C297.4,178,288.4,185,272.5,185z"/>
		<path id="XMLID_96_" d="M396.7,133.7c-27.9,0-57.4,20.4-57.4,65.4c0,26.5,16.9,46.8,47.5,46.8c28.6,0,56.7-20.4,56.7-65.4
			C443.5,153.1,424.9,133.7,396.7,133.7z M387.4,230.6c-18.7,0-29.4-12.1-29.4-32.1c0-23.8,12.6-49.5,38.1-49.5
			c18.7,0,28.6,12.1,28.6,32.1C424.8,205,412.2,230.6,387.4,230.6z"/>
		<polygon id="XMLID_95_" points="524.4,217.9 524.1,217.9 512.4,136.3 486.6,136.3 464.4,243.4 482.4,243.4 498.7,157.6 499,157.6 
			512.5,243.4 527.2,243.4 575.7,157.6 576,157.6 557.4,243.4 575.4,243.4 597.4,136.3 570.9,136.3 		"/>
		<path id="XMLID_92_" d="M667.6,136.3l-64.2,107.1h20.1L640,215h42.6l4.3,28.3h19l-18.6-107.1h-19.7V136.3z M648,200.8l25.8-45.6
			h0.3l6.6,45.6L648,200.8L648,200.8z"/>
		<polygon id="XMLID_91_" points="768.3,152.5 822.7,152.5 826,136.3 753,136.3 730.6,243.4 749.4,243.4 759.3,195.8 806.4,195.8 
			809.7,180.5 762.4,180.5 		"/>
		<path id="XMLID_88_" d="M878.8,136.3l-64.2,107.1h20.1l16.5-28.3h42.6l4.3,28.3h19l-18.6-107.1L878.8,136.3L878.8,136.3z
			 M859.2,200.8l25.8-45.6h0.3l6.6,45.6L859.2,200.8L859.2,200.8z"/>
	</g>
</g>
</svg>
